<svg width="100" height="100" viewBox="0 0 100 100" fill="none" xmlns="http://www.w3.org/2000/svg">
<path d="M50 6.25C25.8379 6.25 6.25 25.8379 6.25 50C6.25 74.1621 25.8379 93.75 50 93.75C74.1621 93.75 93.75 74.1631 93.75 50C93.75 25.8369 74.1621 6.25 50 6.25ZM71.5449 40.0566L46.1328 65.4678C45.7701 65.8305 45.3395 66.1183 44.8655 66.3146C44.3916 66.5109 43.8836 66.612 43.3706 66.612C42.8576 66.612 42.3496 66.5109 41.8757 66.3146C41.4018 66.1183 40.9711 65.8305 40.6084 65.4678L28.4551 53.3145C28.0923 52.9517 27.8046 52.5211 27.6083 52.0472C27.4119 51.5732 27.3109 51.0652 27.3109 50.5522C27.3109 50.0393 27.4119 49.5313 27.6083 49.0573C27.8046 48.5834 28.0923 48.1528 28.4551 47.79C28.8178 47.4273 29.2484 47.1395 29.7224 46.9432C30.1963 46.7469 30.7043 46.6459 31.2173 46.6459C31.7303 46.6459 32.2382 46.7469 32.7122 46.9432C33.1861 47.1395 33.6168 47.4273 33.9795 47.79L43.3711 57.1816L66.0205 34.5322C66.3832 34.1695 66.8139 33.8817 67.2878 33.6854C67.7617 33.4891 68.2697 33.388 68.7827 33.388C69.2957 33.388 69.8037 33.4891 70.2776 33.6854C70.7516 33.8817 71.1822 34.1695 71.5449 34.5322C71.9077 34.895 72.1954 35.3256 72.3917 35.7995C72.5881 36.2735 72.6891 36.7814 72.6891 37.2944C72.6891 37.8074 72.5881 38.3154 72.3917 38.7893C72.1954 39.2633 71.9077 39.6939 71.5449 40.0566V40.0566Z" fill="#F65656"/>
<path d="M71.5446 34.5329C71.1818 34.1701 70.7512 33.8824 70.2773 33.686C69.8033 33.4897 69.2954 33.3887 68.7824 33.3887C68.2694 33.3887 67.7614 33.4897 67.2875 33.686C66.8135 33.8824 66.3829 34.1701 66.0202 34.5329L43.3707 57.1823L33.984 47.7907C33.6213 47.4279 33.1907 47.1402 32.7167 46.9438C32.2428 46.7475 31.7348 46.6465 31.2218 46.6465C30.7088 46.6465 30.2009 46.7475 29.7269 46.9438C29.253 47.1402 28.8223 47.4279 28.4596 47.7907C28.0969 48.1534 27.8091 48.584 27.6128 49.058C27.4165 49.5319 27.3154 50.0399 27.3154 50.5529C27.3154 51.0659 27.4165 51.5738 27.6128 52.0478C27.8091 52.5217 28.0969 52.9524 28.4596 53.3151L40.6081 65.4684C40.9708 65.8312 41.4014 66.1189 41.8754 66.3152C42.3493 66.5115 42.8573 66.6126 43.3703 66.6126C43.8833 66.6126 44.3912 66.5115 44.8652 66.3152C45.3391 66.1189 45.7697 65.8312 46.1325 65.4684L71.5446 40.0573C71.9073 39.6945 72.1951 39.2639 72.3914 38.79C72.5877 38.316 72.6888 37.8081 72.6888 37.2951C72.6888 36.7821 72.5877 36.2741 72.3914 35.8002C72.1951 35.3262 71.9073 34.8956 71.5446 34.5329V34.5329Z" fill="white"/>
</svg>
